<svg width="861" height="937" viewBox="0 0 861 937" fill="none" xmlns="http://www.w3.org/2000/svg">
<path d="M393 349.518L470.5 406.018L566 335.518L526.5 421.518L464 457.018L420 421.518L393 349.518Z" fill="#212221"/>
<path d="M336.5 387.518C346.5 378.018 387 374.018 392 368.018C397 362.018 397 356.518 397 356.518L414.5 402.518C414.5 402.518 443 447.518 469 444.518C495 441.518 513.5 424.018 513.5 424.018L523 412.518L540.5 387.518L558 353.518C558 353.518 551.5 364.518 558 373.018C564.5 381.518 575 380.018 575 380.018L623.5 515.018H336.5C336.5 515.018 326.5 397.018 336.5 387.518Z" fill="#6A4E4D"/>
<path d="M375 70.0179C395.5 37.0179 413.5 25.018 434 13.518C454.5 2.01795 464.5 0.518002 490 0.0180016C515.5 -0.481998 540.5 9.51794 552.5 19.5179C564.5 29.5179 586.5 53.5179 591.5 67.0179C596.5 80.5179 606 81.0179 608.5 126.018C611 171.018 587.5 215.018 587.5 215.018L581 120.518L491 111.268L397 104.018L386.5 108.518L368.5 139.518L366.5 203.018L355.5 167.018C355.5 167.018 354.5 103.018 375 70.0179Z" fill="#202221"/>
<path d="M587 216.018C586.5 216.018 586.5 216.018 586.5 216.018V216.019V216.022L586.5 216.033L586.5 216.081C586.5 216.123 586.499 216.187 586.499 216.273C586.498 216.444 586.496 216.702 586.491 217.046C586.482 217.734 586.465 218.769 586.43 220.154C586.36 222.923 586.219 227.091 585.938 232.68C585.376 243.853 584.253 260.707 582.006 283.428C576.008 305.915 568.249 329.468 564.548 337.305C560.323 346.251 552.852 356.715 546.418 364.96C543.205 369.079 540.256 372.636 538.111 375.163C537.039 376.427 536.167 377.433 535.564 378.122C535.462 378.239 535.368 378.346 535.282 378.444C535.113 378.637 534.975 378.794 534.869 378.913C534.79 379.002 534.729 379.07 534.689 379.116L534.643 379.167L534.631 379.18L534.628 379.183L534.628 379.184C534.628 379.184 534.628 379.184 534.653 379.207L534.628 379.184L534.608 379.206L534.591 379.231L535 379.518C534.591 379.231 534.591 379.231 534.591 379.231L534.59 379.232L534.586 379.237L534.572 379.257L534.517 379.336C534.487 379.377 534.45 379.431 534.403 379.496C534.372 379.54 534.337 379.589 534.298 379.644C534.106 379.914 533.822 380.312 533.458 380.817C532.729 381.829 531.675 383.276 530.38 385.016C527.79 388.497 524.233 393.146 520.365 397.824C516.495 402.506 512.323 407.206 508.502 410.794C506.59 412.589 504.777 414.095 503.141 415.182C501.494 416.275 500.077 416.908 498.95 417.02C494.148 417.501 489.788 414.984 485.334 412.098C484.93 411.837 484.526 411.572 484.12 411.307C482.312 410.124 480.486 408.93 478.635 407.937C476.364 406.718 474.018 405.78 471.552 405.521C468.994 405.251 466.742 406.337 464.646 407.907C463.21 408.982 461.795 410.329 460.38 411.676C459.746 412.279 459.112 412.882 458.476 413.461C456.39 415.359 454.251 417.033 451.862 417.85C449.501 418.656 446.858 418.638 443.724 417.071C440.553 415.485 436.289 411.912 431.559 407.127C426.841 402.355 421.697 396.417 416.768 390.147C406.897 377.588 397.942 363.768 394.972 355.352C391.979 346.873 387.484 330.891 383.733 317.013C381.858 310.077 380.171 303.672 378.953 299.001C378.343 296.666 377.851 294.764 377.512 293.446C377.342 292.787 377.21 292.274 377.121 291.926L377.019 291.529L376.993 291.428L376.993 291.427L366.499 201.978L366.498 201.974L366.497 201.946L366.49 201.818C366.483 201.704 366.474 201.536 366.462 201.315C366.439 200.873 366.406 200.223 366.368 199.391C366.291 197.728 366.191 195.336 366.101 192.424C365.922 186.602 365.781 178.704 365.937 170.402C366.094 162.098 366.546 153.401 367.55 145.976C368.052 142.263 368.691 138.877 369.496 136.023C370.303 133.161 371.268 130.868 372.404 129.313C375.878 124.559 378.959 119.196 381.769 114.303C382.816 112.48 383.826 110.723 384.804 109.087C386.615 106.059 388.314 103.451 389.955 101.573C391.611 99.6777 393.121 98.6255 394.538 98.5165C395.264 98.4607 396.111 98.5985 397.203 98.9021C398.14 99.1625 399.221 99.5338 400.525 99.9816C400.74 100.056 400.962 100.132 401.19 100.21C404.395 101.307 408.778 102.752 415.09 104.008C427.712 106.52 448.013 108.269 482.048 105.016C542.715 99.2167 547.654 98.5931 552.6 98.5261C553.2 98.518 553.8 98.518 554.5 98.518C555.207 98.518 556.2 98.7886 557.438 99.3357C558.663 99.8775 560.083 100.67 561.628 101.665C564.717 103.655 568.273 106.433 571.726 109.575C575.179 112.717 578.517 116.212 581.176 119.63C583.842 123.057 585.792 126.368 586.516 129.144C586.878 130.53 587.157 132.925 587.362 136.09C587.567 139.244 587.695 143.128 587.766 147.471C587.906 156.158 587.813 166.667 587.625 176.821C587.438 186.974 587.156 196.769 586.922 204.025C586.805 207.653 586.7 210.647 586.623 212.733C586.585 213.776 586.555 214.593 586.533 215.148L586.509 215.782L586.503 215.944L586.501 215.984L586.501 215.995L586.5 215.997C586.5 215.998 586.5 215.998 587 216.018ZM587 216.018H586.5V216.008L586.5 215.998L587 216.018Z" fill="#6E5550" stroke="#212221"/>
<path d="M771.5 737.011H792.467L820.818 732.018L854.779 737.011C854.779 737.011 858.618 837.365 848.577 832.871C838.537 828.378 771.5 832.871 771.5 832.871V737.011Z" fill="#766665"/>
<path d="M713.5 763.018H749L797 758.018C797 758.018 854.9 760.518 855.5 763.518C856.1 766.518 873 854.018 844 859.018C815 864.018 713.5 859.018 713.5 859.018V763.018Z" fill="#715C5B"/>
<path d="M217 431.518C234 420.518 354.5 379.018 354.5 379.018C354.5 379.018 348.5 506.518 461 499.018C573.5 491.518 573.5 379.018 573.5 379.018C573.5 379.018 704.122 425.518 728.5 447.518C752.878 469.518 857.5 726.018 855 737.518C852.5 749.018 835.5 737.518 806.25 749.518C777 761.518 757.5 761.518 757.5 761.518L211.5 737.518L181.5 508.518C181.5 508.518 200 442.518 217 431.518Z" fill="#C5C5C1"/>
<path d="M340 383.518L353.5 378.018C353.5 378.018 359 440.018 375.5 457.018C392 474.018 392.5 495.018 455.5 495.018C518.5 495.018 552 452.518 562.5 429.518C573 406.518 573 377.518 573 377.518L593 385.518C593 385.518 588 414.518 578.5 440.018C569 465.518 537.5 492.518 537.5 492.518C537.5 492.518 492 514.018 470.5 514.018C449 514.018 428 511.518 414 506.518C400 501.518 377 485.518 360 457.018C343 428.518 340 383.518 340 383.518Z" fill="#666262"/>
<path d="M1.51725 522.25C0.73509 518.522 3.58009 515.018 7.38942 515.018H779.528C783.198 515.018 786.008 518.283 785.461 521.912L727.27 907.912C726.827 910.848 724.305 913.018 721.337 913.018H88.3718C85.5329 913.018 83.0826 911.028 82.4997 908.25L1.51725 522.25Z" fill="#112724"/>
<path d="M179 913.018H629L617.5 928.018H194.5L179 913.018Z" fill="#112724"/>
<path d="M194.5 928.018H222L213.438 936.018H200.438L194.5 928.018Z" fill="#0E0E0E"/>
<path d="M617.5 928.018H589.5L598.218 936.018H611.454L617.5 928.018Z" fill="#0E0E0E"/>
<path d="M486.087 241.489C488.69 238.443 501.703 229.305 511.594 225.65C521.484 221.994 561 222.518 561 222.518C561 222.518 570.5 225.518 566 227.018C561.5 228.518 556.881 229.305 556.881 229.305C556.881 229.305 523.046 231.742 517.32 232.351C514.778 232.621 505.641 236.507 498.58 239.661C489.735 243.613 490.381 246.018 490.381 246.018C490.381 246.018 483.484 244.535 486.087 241.489Z" fill="#1C1E1B"/>
<path d="M381.283 233.427C384.609 231.194 399.602 225.896 410.112 225.038C420.621 224.18 456.503 234.567 456.503 234.567C456.503 234.567 461.232 240.52 456.494 240.754C451.757 240.987 452.744 240.749 452.744 240.749C452.744 240.749 419.501 233.988 413.823 233.034C411.302 232.61 401.456 233.892 393.807 235.03C384.224 236.455 384.2 238.945 384.2 238.945C384.2 238.945 377.956 235.661 381.283 233.427Z" fill="#1C1E1B"/>
<path d="M507.015 255.318L516.965 256.017L516.967 256.017L517 255.518C516.967 256.017 516.967 256.017 516.967 256.017L516.967 256.017L516.968 256.017L516.972 256.017L516.989 256.018L517.052 256.023L517.297 256.038C517.509 256.052 517.816 256.072 518.196 256.095C518.954 256.142 520.003 256.205 521.161 256.267C523.472 256.392 526.235 256.518 528 256.518C529.763 256.518 533.149 256.392 536.084 256.268C537.554 256.205 538.914 256.142 539.906 256.096C540.403 256.072 540.807 256.053 541.088 256.039L541.412 256.023L541.496 256.019L541.518 256.018L541.523 256.017L541.524 256.017L541.525 256.017C541.525 256.017 541.525 256.017 541.504 255.602L541.525 256.017L541.532 256.017L552.221 255.326L538.766 264.572L538.744 264.58C538.693 264.599 538.617 264.628 538.518 264.664C538.319 264.737 538.029 264.841 537.666 264.966C536.938 265.216 535.915 265.549 534.739 265.883C532.374 266.553 529.428 267.21 527 267.21C525.852 267.21 524.395 266.792 522.82 266.126C521.255 265.464 519.621 264.578 518.132 263.685C516.644 262.794 515.311 261.901 514.348 261.231C513.867 260.897 513.48 260.618 513.213 260.423C513.079 260.326 512.976 260.249 512.906 260.198L512.828 260.139L512.81 260.126L507.015 255.318Z" fill="#A69D99" stroke="black"/>
<path d="M504.5 253.518L517.381 252.52C517.381 252.52 525.536 254.328 529 254.328C532.464 254.328 541.629 252.52 541.629 252.52L553 251.518L538 245.018C538 245.018 532.448 242.328 527.5 242.328C522.552 242.328 512.928 247.52 512.928 247.52L504.5 253.518Z" fill="#483E3C"/>
<path d="M537.5 257.279C537.5 262.802 533.023 267.279 527.5 267.279C521.977 267.279 517.5 262.802 517.5 257.279C517.5 255.225 517.938 256.304 519 256.279C520.794 256.239 524.031 256.279 527.5 256.279C530.959 257.144 531.754 256.762 533.5 256.279C533 256.279 537.5 254.941 537.5 257.279Z" fill="#2F2C2A"/>
<circle cx="527" cy="261.518" r="2.5" fill="#3B3639"/>
<path d="M507.015 255.318L516.965 256.017L516.967 256.017L517 255.518C516.967 256.017 516.967 256.017 516.967 256.017L516.967 256.017L516.968 256.017L516.972 256.017L516.989 256.018L517.052 256.023L517.297 256.038C517.509 256.052 517.816 256.072 518.196 256.095C518.954 256.142 520.003 256.205 521.161 256.267C523.472 256.392 526.235 256.518 528 256.518C529.763 256.518 533.149 256.392 536.084 256.268C537.554 256.205 538.914 256.142 539.906 256.096C540.403 256.072 540.807 256.053 541.088 256.039L541.412 256.023L541.496 256.019L541.518 256.018L541.523 256.017L541.524 256.017L541.525 256.017C541.525 256.017 541.525 256.017 541.504 255.602L541.525 256.017L541.532 256.017L552.221 255.326L538.766 264.572L538.744 264.58C538.693 264.599 538.617 264.628 538.518 264.664C538.319 264.737 538.029 264.841 537.666 264.966C536.938 265.216 535.915 265.549 534.739 265.883C532.374 266.553 529.428 267.21 527 267.21C525.852 267.21 524.395 266.792 522.82 266.126C521.255 265.464 519.621 264.578 518.132 263.685C516.644 262.794 515.311 261.901 514.348 261.231C513.867 260.897 513.48 260.618 513.213 260.423C513.079 260.326 512.976 260.249 512.906 260.198L512.828 260.139L512.81 260.126L507.015 255.318Z" stroke="black"/>
<path d="M504.5 253.018L516 253.826C516 253.826 523.5 254.326 527 254.326C530.5 254.326 540.5 253.826 540.5 253.826L553 253.018" stroke="black" stroke-width="4" stroke-linecap="round"/>
<path d="M396.015 254.007L405.965 254.706L405.967 254.707L406 254.208C405.967 254.707 405.967 254.707 405.967 254.707L405.967 254.707L405.968 254.707L405.972 254.707L405.989 254.708L406.052 254.712L406.297 254.728C406.509 254.742 406.816 254.761 407.196 254.785C407.954 254.832 409.003 254.894 410.161 254.957C412.472 255.082 415.235 255.208 417 255.208C418.763 255.208 422.149 255.082 425.084 254.957C426.554 254.895 427.914 254.832 428.906 254.785C429.403 254.762 429.807 254.742 430.088 254.729L430.412 254.713L430.496 254.709L430.518 254.707L430.523 254.707L430.524 254.707L430.525 254.707C430.525 254.707 430.525 254.707 430.504 254.292L430.525 254.707L430.532 254.707L441.221 254.016L427.766 263.261L427.744 263.27C427.693 263.289 427.617 263.317 427.518 263.354C427.319 263.426 427.029 263.53 426.666 263.655C425.938 263.906 424.915 264.239 423.739 264.573C421.374 265.243 418.428 265.9 416 265.9C414.852 265.9 413.395 265.482 411.82 264.815C410.255 264.154 408.621 263.267 407.132 262.375C405.644 261.483 404.311 260.591 403.348 259.921C402.867 259.586 402.48 259.308 402.213 259.113C402.079 259.015 401.976 258.939 401.906 258.887L401.828 258.828L401.81 258.815L396.015 254.007Z" stroke="black"/>
<path d="M396.015 254.007L405.965 254.706L405.967 254.707L406 254.208C405.967 254.707 405.967 254.707 405.967 254.707L405.967 254.707L405.968 254.707L405.972 254.707L405.989 254.708L406.052 254.712L406.297 254.728C406.509 254.742 406.816 254.761 407.196 254.785C407.954 254.832 409.003 254.894 410.161 254.957C412.472 255.082 415.235 255.208 417 255.208C418.763 255.208 422.149 255.082 425.084 254.957C426.554 254.895 427.914 254.832 428.906 254.785C429.403 254.762 429.807 254.742 430.088 254.729L430.412 254.713L430.496 254.709L430.518 254.707L430.523 254.707L430.524 254.707L430.525 254.707C430.525 254.707 430.525 254.707 430.504 254.292L430.525 254.707L430.532 254.707L441.221 254.016L427.766 263.261L427.744 263.27C427.693 263.289 427.617 263.317 427.518 263.354C427.319 263.426 427.029 263.53 426.666 263.655C425.938 263.906 424.915 264.239 423.739 264.573C421.374 265.243 418.428 265.9 416 265.9C414.852 265.9 413.395 265.482 411.82 264.815C410.255 264.154 408.621 263.267 407.132 262.375C405.644 261.483 404.311 260.591 403.348 259.921C402.867 259.586 402.48 259.308 402.213 259.113C402.079 259.015 401.976 258.939 401.906 258.887L401.828 258.828L401.81 258.815L396.015 254.007Z" fill="#A69D99" stroke="black"/>
<path d="M393.5 252.208L406.381 251.21C406.381 251.21 414.536 253.018 418 253.018C421.464 253.018 430.629 251.21 430.629 251.21L442 250.208L427 243.708C427 243.708 421.448 241.018 416.5 241.018C411.552 241.018 401.928 246.21 401.928 246.21L393.5 252.208Z" fill="#483E3C"/>
<path d="M429.5 255.969C429.5 261.492 425.023 265.969 419.5 265.969C413.977 265.969 409.5 261.492 409.5 255.969C409.5 253.915 409.938 254.993 411 254.969C412.794 254.928 416.031 254.969 419.5 254.969C422.959 255.834 423.754 255.451 425.5 254.969C425 254.969 429.5 253.63 429.5 255.969Z" fill="#2F2C2A"/>
<circle cx="419" cy="260.208" r="2.5" fill="#3B3639"/>
<path d="M393.5 251.708L405 252.516C405 252.516 412.5 253.016 416 253.016C419.5 253.016 429.5 252.516 429.5 252.516L442 251.708" stroke="black" stroke-width="4" stroke-linecap="round"/>
<path d="M497.079 318.656C500.696 317.451 503.851 319.248 506.141 321.413C507.281 322.492 508.192 323.65 508.819 324.54C509.132 324.984 509.373 325.361 509.536 325.625C509.617 325.758 509.679 325.862 509.72 325.933C509.722 325.936 509.724 325.94 509.726 325.943C509.712 325.981 509.693 326.03 509.67 326.088C509.606 326.25 509.506 326.485 509.368 326.772C509.092 327.347 508.663 328.129 508.049 328.958C506.821 330.615 504.866 332.445 501.939 333.177C500.487 333.54 498.557 333.483 496.458 333.18C494.364 332.877 492.126 332.333 490.069 331.741C488.014 331.15 486.144 330.511 484.788 330.02C484.11 329.775 483.561 329.566 483.182 329.419C483.081 329.38 482.992 329.345 482.916 329.316C482.943 329.284 482.972 329.25 483.004 329.213C483.209 328.977 483.51 328.638 483.894 328.222C484.664 327.39 485.768 326.255 487.105 325.042C489.785 322.611 493.379 319.89 497.079 318.656Z" fill="#72514F" stroke="#212221" stroke-width="0.5"/>
<path d="M456.706 318.663C453.304 317.438 450.332 319.261 448.165 321.476C447.087 322.578 446.225 323.761 445.633 324.671C445.337 325.125 445.109 325.509 444.955 325.78C444.878 325.915 444.819 326.022 444.78 326.095C444.777 326.101 444.774 326.107 444.771 326.113C444.785 326.153 444.803 326.206 444.827 326.271C444.888 326.437 444.982 326.677 445.113 326.971C445.374 327.559 445.78 328.359 446.361 329.206C447.523 330.901 449.37 332.766 452.129 333.512C453.496 333.881 455.315 333.824 457.299 333.514C459.277 333.205 461.391 332.65 463.335 332.046C465.278 331.441 467.044 330.789 468.326 330.288C468.967 330.037 469.485 329.824 469.844 329.674C469.943 329.633 470.029 329.596 470.103 329.565C470.074 329.529 470.042 329.488 470.007 329.445C469.814 329.204 469.529 328.857 469.165 328.432C468.438 327.582 467.394 326.422 466.13 325.184C463.595 322.7 460.2 319.921 456.706 318.663Z" fill="#72514F" stroke="#212221" stroke-width="0.5"/>
<path d="M500.5 330.018C489.56 331.664 485.74 329.664 486.5 329.018M469.734 246.615L475.054 237.909L481.78 244.155L481.785 244.171L481.857 244.409L482.136 245.328C482.378 246.127 482.729 247.289 483.167 248.739C484.042 251.637 485.261 255.684 486.635 260.277C489.385 269.464 492.76 280.838 495.26 289.587C497.497 297.417 499.739 301.168 501.97 304.9C502.242 305.354 502.513 305.808 502.784 306.27C505.225 310.42 507.67 315.169 510.117 325.956C509.89 325.81 509.592 325.627 509.232 325.425C508.33 324.919 507.033 324.286 505.451 323.78C502.287 322.767 497.971 322.257 493.398 324.289C490.521 325.569 488.327 327.201 486.342 328.824C485.636 329.401 484.967 329.974 484.318 330.53C482.983 331.673 481.734 332.743 480.43 333.621C478.507 334.916 476.499 335.768 474 335.768C471.431 335.768 469.526 334.745 467.864 333.271C466.717 332.255 465.703 331.043 464.666 329.804C464.183 329.227 463.695 328.644 463.187 328.073C461.865 326.586 460.42 325.199 458.612 324.294C457.274 323.626 455.895 323.577 454.518 323.833C453.147 324.087 451.761 324.646 450.405 325.203L450.242 325.27C448.447 326.009 446.711 326.723 445.044 326.803C443.358 326.884 441.729 326.314 440.197 324.363C439.882 323.963 439.752 323.442 439.806 322.771C439.86 322.096 440.098 321.285 440.498 320.333C441.3 318.427 442.723 316.02 444.491 313.096C444.678 312.786 444.869 312.471 445.064 312.149C448.533 306.421 453.089 298.899 456.733 289.609C460.138 280.928 463.39 270.169 465.791 261.584C466.991 257.29 467.979 253.539 468.667 250.861C469.011 249.522 469.28 248.451 469.463 247.715C469.554 247.347 469.624 247.062 469.672 246.87L469.725 246.651L469.734 246.615Z" fill="#6E5550" stroke="#212221" stroke-width="0.5"/>
<path d="M377.835 251.966C376.275 240.697 385.428 230.826 396.782 231.532L444.394 234.492C455.77 235.199 463.633 246.168 460.65 257.168L455.074 277.729C452.947 285.573 445.828 291.018 437.701 291.018H398.922C389.934 291.018 382.324 284.389 381.092 275.487L377.835 251.966Z" fill="#485467" fill-opacity="0.42" stroke="black" stroke-width="4"/>
<path d="M573.665 254.966C575.225 243.697 566.072 233.826 554.718 234.532L507.106 237.492C495.73 238.199 487.867 249.168 490.85 260.168L496.426 280.729C498.553 288.573 505.672 294.018 513.799 294.018H552.578C561.566 294.018 569.176 287.389 570.408 278.487L573.665 254.966Z" fill="#485467" fill-opacity="0.42" stroke="black" stroke-width="4"/>
<path d="M462.5 244.018C462.5 244.018 470.484 238.862 477 239.022C483.516 239.181 489.5 242.769 489.5 242.769" stroke="black" stroke-width="9" stroke-linecap="square"/>
<path d="M557 233.351H571H583.5L582 242.351L576 246.351L575 249.351L573.5 245.851L557 233.351Z" fill="black"/>
<path d="M394 230.018H380H367.5L369 239.018L375 243.018L376 246.018L377.5 242.518L394 230.018Z" fill="black"/>
<path d="M595.228 212.734C595.854 211.503 595.364 209.998 594.134 209.372C592.903 208.746 591.398 209.236 590.772 210.466L595.228 212.734ZM580.728 241.234L595.228 212.734L590.772 210.466L576.272 238.966L580.728 241.234Z" fill="black"/>
<path d="M367.944 206.992C367.653 205.642 366.324 204.783 364.974 205.074C363.624 205.365 362.765 206.694 363.056 208.044L367.944 206.992ZM374.444 237.185L367.944 206.992L363.056 208.044L369.556 238.238L374.444 237.185Z" fill="black"/>
<path d="M427 363.518C427 363.518 454.5 371.539 473 370.018C491.5 368.497 512.5 363.518 512.5 363.518L502.5 373.518C502.5 373.518 488.5 389.268 471.5 388.518C454.5 387.768 440.5 377.018 440.5 377.018L427 363.518Z" fill="#7C555E"/>
<path d="M433.5 360.518C433.5 360.518 448.5 353.518 452.5 354.018C456.5 354.518 466.5 362.018 469.5 361.518C471.026 361.263 479 358.018 487 354.518C490.221 353.109 499.5 358.518 499.5 358.518L506.5 361.518L513.5 363.018C513.5 363.018 487 372.518 470.5 372.018C454 371.518 426.5 364.018 426.5 364.018L433.5 360.518Z" fill="#413332"/>
<path d="M426.5 363.525C426.5 363.525 454 387.357 472.5 385.836C491 384.315 512.5 363.018 512.5 363.018L497.5 382.287C497.5 382.287 487 397.741 470 396.992C453 396.242 441.5 384.315 441.5 384.315L426.5 363.525Z" fill="#50393C"/>
<path d="M427 363.518C427 363.518 448 378.897 452 380.397C456 381.897 465 385.397 471.5 385.397C478 385.397 483 382.897 489 380.397C495 377.897 513.5 363.018 513.5 363.018" stroke="black" stroke-linecap="round"/>
<path d="M426.5 363.518C426.5 363.518 438.427 384.766 451.5 391.397C458.892 395.147 465 396.897 472 396.897C479 396.897 486.5 392.397 489 390.397C491.5 388.397 499 381.397 499 381.397L513.5 363.018" stroke="black" stroke-linecap="round"/>
<path d="M427 363.518C427 363.518 440.321 367.508 453.357 370.098C460.5 371.518 463.54 372.018 470.5 372.018C477.46 372.018 488.157 370.516 490.643 369.681C493.129 368.845 493 369.018 501 366.518C509 364.018 513.5 363.018 513.5 363.018" stroke="black" stroke-linecap="round"/>
<path d="M426.5 363.397C426.5 363.397 437.576 357.801 450.5 354.3C457.808 352.321 462.08 361.397 469 361.397C475.92 361.397 483.5 354.204 487 354.3C490.5 354.397 491.21 355.158 500.072 358.976C508.935 362.794 513.5 363.018 513.5 363.018" stroke="black" stroke-linecap="round"/>
<path d="M423.565 347.685C433.065 340.351 468.065 336.018 468.065 336.018C468.065 336.018 508.565 337.351 521.065 346.018C533.565 354.685 528 363.018 521.065 360.518C514.13 358.018 518.065 360.518 498.565 353.018C479.065 345.518 485.565 350.518 470.065 350.518C454.565 350.518 459.565 346.018 444.565 350.518C429.565 355.018 423.565 360.018 418.565 360.518C413.565 361.018 414.065 355.018 423.565 347.685Z" fill="#212221"/>
<path d="M630.129 884.018H625.64V869.473H630.328C631.739 869.473 632.946 869.764 633.95 870.346C634.954 870.924 635.723 871.755 636.258 872.839C636.793 873.919 637.061 875.211 637.061 876.717C637.061 878.232 636.791 879.537 636.251 880.63C635.711 881.719 634.925 882.557 633.893 883.144C632.861 883.727 631.606 884.018 630.129 884.018ZM627.402 882.456H630.015C631.218 882.456 632.215 882.224 633.005 881.76C633.796 881.296 634.386 880.635 634.774 879.778C635.162 878.921 635.356 877.901 635.356 876.717C635.356 875.543 635.164 874.532 634.781 873.684C634.397 872.832 633.824 872.179 633.062 871.724C632.3 871.265 631.35 871.035 630.214 871.035H627.402V882.456ZM642.998 884.274C642.307 884.274 641.68 884.144 641.116 883.883C640.553 883.618 640.105 883.237 639.774 882.74C639.442 882.238 639.277 881.632 639.277 880.921C639.277 880.296 639.4 879.79 639.646 879.402C639.892 879.009 640.221 878.701 640.633 878.478C641.045 878.256 641.5 878.09 641.997 877.981C642.499 877.867 643.003 877.778 643.51 877.711C644.172 877.626 644.71 877.562 645.122 877.519C645.538 877.472 645.842 877.394 646.031 877.285C646.225 877.176 646.322 876.987 646.322 876.717V876.66C646.322 875.959 646.13 875.415 645.747 875.027C645.368 874.638 644.793 874.444 644.021 874.444C643.221 874.444 642.593 874.619 642.139 874.97C641.684 875.32 641.365 875.694 641.18 876.092L639.589 875.524C639.873 874.861 640.252 874.345 640.725 873.975C641.204 873.601 641.725 873.341 642.288 873.194C642.856 873.043 643.415 872.967 643.964 872.967C644.315 872.967 644.717 873.01 645.172 873.095C645.631 873.175 646.074 873.343 646.5 873.599C646.931 873.855 647.288 874.241 647.572 874.757C647.856 875.273 647.998 875.964 647.998 876.831V884.018H646.322V882.541H646.237C646.123 882.778 645.934 883.031 645.669 883.301C645.404 883.571 645.051 883.8 644.61 883.99C644.17 884.179 643.633 884.274 642.998 884.274ZM643.254 882.768C643.917 882.768 644.475 882.638 644.93 882.377C645.389 882.117 645.735 881.781 645.967 881.369C646.204 880.957 646.322 880.524 646.322 880.069V878.535C646.251 878.62 646.095 878.698 645.853 878.769C645.617 878.836 645.342 878.895 645.029 878.947C644.722 878.994 644.421 879.037 644.127 879.075C643.839 879.108 643.604 879.136 643.424 879.16C642.989 879.217 642.582 879.309 642.203 879.437C641.829 879.56 641.526 879.747 641.294 879.998C641.066 880.244 640.953 880.581 640.953 881.007C640.953 881.589 641.168 882.029 641.599 882.328C642.035 882.621 642.586 882.768 643.254 882.768ZM643.311 871.632L645.044 868.336H647.004L644.788 871.632H643.311ZM652.734 869.473V884.018H651.058V869.473H652.734ZM660.235 884.245C659.213 884.245 658.332 884.004 657.593 883.521C656.855 883.038 656.287 882.373 655.889 881.525C655.491 880.678 655.292 879.709 655.292 878.62C655.292 877.512 655.496 876.535 655.903 875.687C656.315 874.835 656.888 874.17 657.622 873.691C658.36 873.208 659.222 872.967 660.207 872.967C660.974 872.967 661.665 873.109 662.281 873.393C662.896 873.677 663.401 874.075 663.794 874.586C664.187 875.098 664.431 875.694 664.525 876.376H662.849C662.721 875.879 662.437 875.439 661.997 875.055C661.561 874.667 660.974 874.473 660.235 874.473C659.582 874.473 659.009 874.643 658.517 874.984C658.029 875.32 657.648 875.796 657.373 876.412C657.103 877.022 656.968 877.74 656.968 878.564C656.968 879.406 657.101 880.14 657.366 880.765C657.636 881.39 658.015 881.876 658.502 882.221C658.995 882.567 659.573 882.74 660.235 882.74C660.671 882.74 661.066 882.664 661.422 882.512C661.777 882.361 662.077 882.143 662.324 881.859C662.57 881.575 662.745 881.234 662.849 880.836H664.525C664.431 881.48 664.196 882.06 663.822 882.576C663.453 883.088 662.963 883.495 662.352 883.798C661.746 884.096 661.04 884.245 660.235 884.245ZM666.975 884.018V873.109H668.652V884.018H666.975ZM667.828 871.291C667.501 871.291 667.219 871.18 666.983 870.957C666.751 870.734 666.635 870.467 666.635 870.154C666.635 869.842 666.751 869.574 666.983 869.352C667.219 869.129 667.501 869.018 667.828 869.018C668.154 869.018 668.434 869.129 668.666 869.352C668.903 869.574 669.021 869.842 669.021 870.154C669.021 870.467 668.903 870.734 668.666 870.957C668.434 871.18 668.154 871.291 667.828 871.291ZM676.153 884.245C675.169 884.245 674.304 884.011 673.561 883.542C672.822 883.073 672.245 882.418 671.828 881.575C671.416 880.732 671.21 879.747 671.21 878.62C671.21 877.484 671.416 876.492 671.828 875.644C672.245 874.797 672.822 874.139 673.561 873.67C674.304 873.201 675.169 872.967 676.153 872.967C677.138 872.967 678 873.201 678.739 873.67C679.482 874.139 680.06 874.797 680.472 875.644C680.888 876.492 681.097 877.484 681.097 878.62C681.097 879.747 680.888 880.732 680.472 881.575C680.06 882.418 679.482 883.073 678.739 883.542C678 884.011 677.138 884.245 676.153 884.245ZM676.153 882.74C676.902 882.74 677.517 882.548 678 882.164C678.483 881.781 678.84 881.277 679.072 880.652C679.304 880.027 679.42 879.35 679.42 878.62C679.42 877.891 679.304 877.212 679.072 876.582C678.84 875.952 678.483 875.443 678 875.055C677.517 874.667 676.902 874.473 676.153 874.473C675.405 874.473 674.79 874.667 674.307 875.055C673.824 875.443 673.466 875.952 673.234 876.582C673.002 877.212 672.886 877.891 672.886 878.62C672.886 879.35 673.002 880.027 673.234 880.652C673.466 881.277 673.824 881.781 674.307 882.164C674.79 882.548 675.405 882.74 676.153 882.74Z" fill="white"/>
<path d="M647.5 838.018H625.955V768.2H648.455C655.227 768.2 661.023 769.597 665.841 772.393C670.659 775.166 674.352 779.154 676.92 784.359C679.489 789.541 680.773 795.745 680.773 802.972C680.773 810.245 679.477 816.507 676.886 821.757C674.295 826.984 670.523 831.007 665.568 833.825C660.614 836.62 654.591 838.018 647.5 838.018ZM634.409 830.518H646.955C652.727 830.518 657.511 829.404 661.307 827.177C665.102 824.95 667.932 821.779 669.795 817.666C671.659 813.552 672.591 808.654 672.591 802.972C672.591 797.336 671.67 792.484 669.83 788.416C667.989 784.325 665.239 781.188 661.58 779.007C657.92 776.802 653.364 775.7 647.909 775.7H634.409V830.518Z" fill="white"/>
</svg>
